<?xml version="1.0" standalone="no"?><!DOCTYPE svg PUBLIC "-//W3C//DTD SVG 1.1//EN" "http://www.w3.org/Graphics/SVG/1.1/DTD/svg11.dtd"><svg class="icon" width="200px" height="200.00px" viewBox="0 0 1024 1024" version="1.1" xmlns="http://www.w3.org/2000/svg"><path fill="#333333" d="M991.8 153.4c-0.3-6.5-1.2-13-2.4-19.2s-3-12.3-5.2-18.2c-0.7-2-1.5-3.9-2.3-5.8-3.5-8.3-7.9-16.2-13-23.5-0.3-0.5-0.7-1-1-1.4-0.9-1.2-1.8-2.5-2.8-3.7-0.3-0.3-0.5-0.7-0.8-1-2.4-3-4.9-5.9-7.5-8.7-0.1-0.1-0.1-0.1-0.2-0.2-5.6-5.9-11.8-11.3-18.5-16-1.4-1-2.8-1.9-4.2-2.9-1.5-1-3-1.9-4.6-2.9-0.8-0.5-1.7-1-2.5-1.5-1.2-0.7-2.3-1.3-3.5-1.9-0.6-0.3-1.2-0.6-1.9-1-1.2-0.6-2.5-1.2-3.8-1.8-2.4-1.1-4.9-2.2-7.4-3.2-1.4-0.6-2.9-1.1-4.3-1.6-2.2-0.8-4.5-1.5-6.8-2.1-3-0.9-6.1-1.6-9.2-2.3-5.2-1.1-10.5-1.8-15.9-2.2-3.3-0.2-6.5-0.4-9.8-0.4s-6.6 0.1-9.8 0.4c-5.4 0.4-10.7 1.2-15.9 2.2-3.1 0.6-6.2 1.4-9.2 2.3-2.3 0.6-4.5 1.4-6.8 2.1-1.4 0.5-2.9 1-4.3 1.6-2.5 1-5 2-7.4 3.2-1.3 0.6-2.5 1.2-3.8 1.8-0.6 0.3-1.2 0.6-1.9 1-1.2 0.6-2.4 1.3-3.5 1.9-0.9 0.5-1.7 1-2.5 1.5-1.5 0.9-3.1 1.9-4.6 2.9-1.4 0.9-2.8 1.9-4.2 2.9-6.7 4.7-12.9 10.1-18.5 16-0.1 0.1-0.1 0.1-0.2 0.2-2.6 2.8-5.1 5.7-7.5 8.7-0.3 0.3-0.5 0.7-0.8 1-0.9 1.2-1.9 2.4-2.8 3.7-0.3 0.5-0.7 1-1 1.4-5.1 7.3-9.5 15.2-13 23.5-0.8 1.9-1.6 3.9-2.3 5.8-2.2 5.9-3.9 12-5.2 18.2s-2.1 12.7-2.4 19.2c-0.1 2.2-0.2 4.4-0.2 6.6 0 3.3 0.1 6.6 0.4 9.8 0.4 5.4 1.2 10.7 2.2 15.9 0.6 3.1 1.4 6.2 2.3 9.2 4.9 17.2 13.3 32.9 24.4 46.4 0.7 0.8 1.3 1.6 2 2.3 3.9 4.5 8.2 8.8 12.7 12.8l-99.2 287.8c-2.9-0.2-5.8-0.3-8.7-0.3-14 0-27.5 2.3-40.1 6.4-0.6 0.2-1.2 0.4-1.7 0.6-1.4 0.5-2.9 1-4.3 1.6-2.2 0.9-4.4 1.8-6.6 2.8L469.4 402.9c2.2-5.1 4.1-10.5 5.7-15.9 0.9-3 1.6-6.1 2.3-9.2 1.1-5.2 1.8-10.5 2.2-15.9 0.2-3.3 0.4-6.5 0.4-9.8 0-2.2-0.1-4.4-0.2-6.6-0.3-6.5-1.2-13-2.4-19.2-6.6-32.3-25.4-60.1-51.3-78.6-0.8-0.6-1.7-1.2-2.5-1.8-6-4-12.3-7.6-18.9-10.6-1.9-0.9-3.8-1.7-5.7-2.4s-3.9-1.5-5.9-2.2c-12.9-4.4-26.7-6.7-41.1-6.7-3.3 0-6.6 0.1-9.8 0.4-5.4 0.4-10.7 1.2-15.9 2.2-3.1 0.6-6.2 1.4-9.2 2.3-2.3 0.6-4.5 1.4-6.8 2.1-1.4 0.5-2.9 1-4.3 1.6-2.5 1-5 2-7.4 3.2-1.3 0.6-2.5 1.2-3.8 1.8-0.6 0.3-1.2 0.6-1.9 1-1.2 0.6-2.4 1.3-3.5 1.9-0.9 0.5-1.7 1-2.5 1.5-1.5 0.9-3.1 1.9-4.6 2.9-1.4 0.9-2.8 1.9-4.2 2.9-6.7 4.7-12.9 10.1-18.5 16-0.1 0.1-0.1 0.1-0.2 0.2-2.6 2.8-5.1 5.7-7.5 8.7-0.3 0.3-0.5 0.7-0.8 1-0.9 1.2-1.9 2.4-2.8 3.7-0.3 0.5-0.7 1-1 1.4-5.1 7.3-9.5 15.2-13 23.5-0.8 1.9-1.6 3.9-2.3 5.8-2.2 5.9-3.9 12-5.2 18.2s-2.1 12.7-2.4 19.2c-0.1 2.2-0.2 4.4-0.2 6.6 0 3.3 0.1 6.6 0.4 9.8 0.4 5.4 1.2 10.7 2.2 15.9 0.6 3.1 1.4 6.2 2.3 9.2 4.9 17.2 13.3 32.9 24.4 46.4 0.7 0.8 1.3 1.6 2 2.3 0.6 0.7 1.2 1.4 1.8 2L153.5 736.1c-11.7 0.6-23 2.7-33.6 6.2-0.6 0.2-1.2 0.4-1.7 0.6-1.4 0.5-2.9 1-4.3 1.6-2.5 1-5 2-7.4 3.2-3.1 1.4-6.2 3-9.2 4.7-0.9 0.5-1.7 1-2.5 1.5-1.5 0.9-3.1 1.9-4.6 2.9-1.4 0.9-2.8 1.9-4.2 2.9-1.7 1.2-3.3 2.4-4.9 3.7-0.8 0.6-1.6 1.3-2.4 1.9-2.4 2-4.7 4-6.9 6.1-0.7 0.7-1.5 1.4-2.2 2.1-1.4 1.4-2.9 2.9-4.2 4.4-1.4 1.5-2.7 3.1-4 4.6-2.6 3.2-5.1 6.4-7.4 9.9-4.6 6.8-8.6 14.1-11.8 21.7-0.8 1.9-1.6 3.9-2.3 5.8-0.7 2-1.4 3.9-2 5.9-1.2 4-2.3 8.1-3.2 12.3s-1.5 8.4-1.9 12.7c-0.4 4.3-0.7 8.7-0.7 13.1l0 0 0 0c0 70.7 57.3 128 128 128s128-57.3 128-128l0 0 0 0c0-4.4-0.2-8.8-0.7-13.1-0.4-4.3-1.1-8.5-1.9-12.7s-1.9-8.3-3.2-12.3c-0.6-2-1.3-4-2-5.9-0.7-2-1.5-3.9-2.3-5.8-3.2-7.7-7.2-14.9-11.8-21.7-2.3-3.4-4.8-6.7-7.4-9.9-1.3-1.6-2.6-3.1-4-4.6s-2.8-3-4.2-4.4c-0.7-0.7-1.5-1.4-2.2-2.1-1.3-1.3-2.7-2.5-4.1-3.7L344.1 479.7c2.6 0.2 5.3 0.3 7.9 0.3 15.5 0 30.3-2.7 44-7.8 1.7-0.6 3.3-1.3 5-2l152 154.5c-0.4 1.1-0.8 2.1-1.2 3.2-0.7 2-1.4 3.9-2 5.9-1.2 4-2.3 8.1-3.2 12.3s-1.5 8.4-1.9 12.7c-0.4 4.3-0.7 8.7-0.7 13.1l0 0 0 0c0 70.7 57.3 128 128 128s128-57.3 128-128l0 0 0 0c0-4.4-0.2-8.8-0.7-13.1-0.4-4.3-1.1-8.5-1.9-12.7s-1.9-8.3-3.2-12.3c-0.6-2-1.3-4-2-5.9-0.7-2-1.5-3.9-2.3-5.8-3.2-7.7-7.2-14.9-11.8-21.7-2.3-3.4-4.8-6.7-7.4-9.9-1-1.3-2.1-2.5-3.2-3.7l103.1-299c1.1-0.1 2.1-0.1 3.2-0.2 5.4-0.4 10.7-1.2 15.9-2.2 3.1-0.6 6.2-1.4 9.2-2.3 17.2-4.9 32.9-13.3 46.4-24.4 0.8-0.7 1.6-1.3 2.3-2 4.6-4 9-8.4 13-13 0.7-0.8 1.3-1.6 2-2.3 11.1-13.4 19.5-29.2 24.4-46.4 0.9-3 1.6-6.1 2.3-9.2 1.1-5.2 1.8-10.5 2.2-15.9 0.2-3.3 0.4-6.5 0.4-9.8C992 157.8 991.9 155.6 991.8 153.4z" /></svg>