<?xml version="1.0" standalone="no"?><!DOCTYPE svg PUBLIC "-//W3C//DTD SVG 1.1//EN" "http://www.w3.org/Graphics/SVG/1.1/DTD/svg11.dtd"><svg t="1535005677813" class="icon" style="" viewBox="0 0 1131 1024" version="1.1" xmlns="http://www.w3.org/2000/svg" p-id="4248" xmlns:xlink="http://www.w3.org/1999/xlink" width="220.8984375" height="200"><defs><style type="text/css"></style></defs><path d="M550.702121 305.79265h-46.121302V214.161936h34.20472a42.373469 42.373469 0 0 0 42.358172-42.373469V42.526442A42.373469 42.373469 0 0 0 538.785539 0.152973h-129.338512a42.373469 42.373469 0 0 0-42.358171 42.373469v129.262025A42.373469 42.373469 0 0 0 409.447027 214.161936h34.204721v91.630714H130.684673a69.2049 69.2049 0 0 0-69.067225 69.143711v97.137735H28.957753a28.957753 28.957753 0 0 0-28.942456 28.911862v493.949208a28.850672 28.850672 0 0 0 28.942456 28.911861h126.0343a28.86597 28.86597 0 0 0 28.942456-28.911861V500.985958a28.957753 28.957753 0 0 0-28.942456-28.911862H121.919331l0.627188-80.00478a25.317 25.317 0 0 1 25.347595-25.240514h295.803526l0.688377 105.245294h-33.225694a28.97305 28.97305 0 0 0-28.973051 28.911862v493.949208a28.881267 28.881267 0 0 0 28.973051 28.911861h126.019002a28.881267 28.881267 0 0 0 28.957753-28.911861V500.985958a28.97305 28.97305 0 0 0-28.957753-28.911862h-32.124291l-0.382432-105.245294h45.891844m229.122677 268.467284v359.63908a28.86597 28.86597 0 0 0 28.942456 28.911861h126.049596a28.86597 28.86597 0 0 0 28.942456-28.911861V623.364207a305.012489 305.012489 0 0 1-100.65611 18.815656 463.6147 463.6147 0 0 1-83.278398-6.883777z m305.746758-9.79026a45.524709 45.524709 0 0 1-32.460831-13.461607l-82.605318-82.299373a221.458739 221.458739 0 1 1 100.870272-185.55602 218.383986 218.383986 0 0 1-35.948611 120.695548l82.513535 82.299373a45.891843 45.891843 0 0 1-32.369047 78.322079zM849.289752 214.314909a129.797431 129.797431 0 1 0 130.02689 129.873917 130.02689 130.02689 0 0 0-130.02689-129.873917z" fill="#333" p-id="4249"></path></svg>